<svg xmlns="http://www.w3.org/2000/svg" xmlns:xlink="http://www.w3.org/1999/xlink" preserveAspectRatio="xMidYMid" width="48" height="48" viewBox="0 0 48 48">
  <path d="M45.000,45.000 C45.000,45.000 45.000,18.000 45.000,18.000 C45.000,18.000 24.000,18.000 24.000,18.000 C24.000,18.000 24.000,0.000 24.000,0.000 C24.000,0.000 3.000,0.000 3.000,0.000 C3.000,0.000 3.000,45.000 3.000,45.000 C3.000,45.000 -0.000,45.000 -0.000,45.000 C-0.000,45.000 -0.000,48.000 -0.000,48.000 C-0.000,48.000 48.000,48.000 48.000,48.000 C48.000,48.000 48.000,45.000 48.000,45.000 C48.000,45.000 45.000,45.000 45.000,45.000 ZM6.000,3.000 C6.000,3.000 12.000,3.000 12.000,3.000 C12.000,3.000 12.000,9.000 12.000,9.000 C12.000,9.000 6.000,9.000 6.000,9.000 C6.000,9.000 6.000,3.000 6.000,3.000 ZM6.000,12.000 C6.000,12.000 12.000,12.000 12.000,12.000 C12.000,12.000 12.000,18.000 12.000,18.000 C12.000,18.000 6.000,18.000 6.000,18.000 C6.000,18.000 6.000,12.000 6.000,12.000 ZM6.000,21.000 C6.000,21.000 12.000,21.000 12.000,21.000 C12.000,21.000 12.000,27.000 12.000,27.000 C12.000,27.000 6.000,27.000 6.000,27.000 C6.000,27.000 6.000,21.000 6.000,21.000 ZM6.000,30.000 C6.000,30.000 12.000,30.000 12.000,30.000 C12.000,30.000 12.000,36.000 12.000,36.000 C12.000,36.000 6.000,36.000 6.000,36.000 C6.000,36.000 6.000,30.000 6.000,30.000 ZM18.000,45.000 C18.000,45.000 9.000,45.000 9.000,45.000 C9.000,45.000 9.000,39.000 9.000,39.000 C9.000,39.000 18.000,39.000 18.000,39.000 C18.000,39.000 18.000,45.000 18.000,45.000 ZM21.000,36.000 C21.000,36.000 15.000,36.000 15.000,36.000 C15.000,36.000 15.000,30.000 15.000,30.000 C15.000,30.000 21.000,30.000 21.000,30.000 C21.000,30.000 21.000,36.000 21.000,36.000 ZM21.000,27.000 C21.000,27.000 15.000,27.000 15.000,27.000 C15.000,27.000 15.000,21.000 15.000,21.000 C15.000,21.000 21.000,21.000 21.000,21.000 C21.000,21.000 21.000,27.000 21.000,27.000 ZM21.000,18.000 C21.000,18.000 15.000,18.000 15.000,18.000 C15.000,18.000 15.000,12.000 15.000,12.000 C15.000,12.000 21.000,12.000 21.000,12.000 C21.000,12.000 21.000,18.000 21.000,18.000 ZM21.000,9.000 C21.000,9.000 15.000,9.000 15.000,9.000 C15.000,9.000 15.000,3.000 15.000,3.000 C15.000,3.000 21.000,3.000 21.000,3.000 C21.000,3.000 21.000,9.000 21.000,9.000 ZM27.000,21.000 C27.000,21.000 33.000,21.000 33.000,21.000 C33.000,21.000 33.000,27.000 33.000,27.000 C33.000,27.000 27.000,27.000 27.000,27.000 C27.000,27.000 27.000,21.000 27.000,21.000 ZM27.000,30.000 C27.000,30.000 33.000,30.000 33.000,30.000 C33.000,30.000 33.000,36.000 33.000,36.000 C33.000,36.000 27.000,36.000 27.000,36.000 C27.000,36.000 27.000,30.000 27.000,30.000 ZM39.000,45.000 C39.000,45.000 30.000,45.000 30.000,45.000 C30.000,45.000 30.000,39.000 30.000,39.000 C30.000,39.000 39.000,39.000 39.000,39.000 C39.000,39.000 39.000,45.000 39.000,45.000 ZM42.000,36.000 C42.000,36.000 36.000,36.000 36.000,36.000 C36.000,36.000 36.000,30.000 36.000,30.000 C36.000,30.000 42.000,30.000 42.000,30.000 C42.000,30.000 42.000,36.000 42.000,36.000 ZM42.000,27.000 C42.000,27.000 36.000,27.000 36.000,27.000 C36.000,27.000 36.000,21.000 36.000,21.000 C36.000,21.000 42.000,21.000 42.000,21.000 C42.000,21.000 42.000,27.000 42.000,27.000 Z" fill="#fb9b11" fill-rule="evenodd"/>
</svg>
