<svg xmlns="http://www.w3.org/2000/svg" xmlns:xlink="http://www.w3.org/1999/xlink" preserveAspectRatio="xMidYMid" width="56" height="56" viewBox="0 0 56 56">
  <path d="M28.000,56.000 C12.561,56.000 -0.000,43.440 -0.000,27.999 C-0.000,12.561 12.561,0.000 28.000,0.000 C43.438,0.000 56.000,12.561 56.000,27.999 C56.000,43.438 43.438,56.000 28.000,56.000 ZM28.000,4.343 C14.723,4.343 3.919,15.146 3.919,28.424 C3.919,41.703 14.723,52.503 28.000,52.503 C41.277,52.503 52.078,41.702 52.078,28.423 C52.078,15.145 41.277,4.343 28.000,4.343 ZM35.350,34.215 C29.987,40.447 30.547,49.196 30.784,51.363 C29.870,51.473 28.941,51.537 28.001,51.537 C27.220,51.537 26.450,51.496 25.690,51.421 C25.881,49.919 26.809,40.544 21.157,33.974 C17.575,29.813 12.112,27.700 4.916,27.698 C4.987,25.477 5.359,23.329 6.014,21.309 C8.240,22.757 17.102,28.007 28.613,28.007 C35.131,28.007 42.498,26.313 49.984,21.304 C50.666,23.406 51.054,25.640 51.100,27.959 C44.154,28.055 38.848,30.150 35.350,34.215 ZM8.015,24.407 C8.015,24.407 7.633,25.298 7.633,25.298 C7.633,25.298 14.949,28.443 14.949,28.443 C14.949,28.443 15.330,27.555 15.330,27.555 C15.330,27.555 8.015,24.407 8.015,24.407 ZM28.001,28.847 C25.797,28.847 24.006,30.638 24.006,32.841 C24.006,35.045 25.797,36.836 28.001,36.836 C30.203,36.836 31.996,35.045 31.996,32.841 C31.996,30.638 30.203,28.847 28.001,28.847 ZM48.491,24.407 C48.491,24.407 41.174,27.555 41.174,27.555 C41.174,27.555 41.559,28.443 41.559,28.443 C41.559,28.443 48.875,25.298 48.875,25.298 C48.875,25.298 48.491,24.407 48.491,24.407 ZM28.001,35.867 C26.332,35.867 24.973,34.509 24.973,32.841 C24.973,31.174 26.332,29.816 28.001,29.816 C29.669,29.816 31.028,31.174 31.028,32.841 C31.028,34.509 29.669,35.867 28.001,35.867 Z" fill="#fb9b11" fill-rule="evenodd"/>
</svg>
