<svg xmlns="http://www.w3.org/2000/svg" xmlns:xlink="http://www.w3.org/1999/xlink" preserveAspectRatio="xMidYMid" width="18" height="22" viewBox="0 0 18 22">
  <defs>
    <style>

      .cls-2 {
        fill: #fb9b11;
      }
    </style>
  </defs>
  <path d="M17.100,16.600 C17.100,16.600 9.000,22.000 9.000,22.000 C9.000,22.000 0.900,16.600 0.900,16.600 C0.300,16.200 0.000,15.600 0.000,14.900 C0.000,14.900 0.000,2.000 0.000,2.000 C0.000,0.900 0.900,-0.000 2.000,-0.000 C2.000,-0.000 16.000,-0.000 16.000,-0.000 C17.100,-0.000 18.000,0.900 18.000,2.000 C18.000,2.000 18.000,14.900 18.000,14.900 C18.000,15.600 17.600,16.200 17.100,16.600 ZM14.600,4.600 C14.600,4.600 7.000,12.200 7.000,12.200 C7.000,12.200 3.400,8.600 3.400,8.600 C3.400,8.600 2.000,10.000 2.000,10.000 C2.000,10.000 7.000,15.000 7.000,15.000 C7.000,15.000 16.000,6.000 16.000,6.000 C16.000,6.000 14.600,4.600 14.600,4.600 Z" id="path-1" class="cls-2" fill-rule="evenodd"/>
</svg>
